<svg width="56" height="44" viewBox="0 0 56 44" fill="none" xmlns="http://www.w3.org/2000/svg">
<path d="M47.475 18.4067C46.2283 12.0817 40.6733 7.33334 34 7.33334C28.7017 7.33334 24.1 10.34 21.8083 14.74C16.29 15.3267 12 20.0017 12 25.6667C12 31.735 16.9317 36.6667 23 36.6667H46.8333C51.8933 36.6667 56 32.56 56 27.5C56 22.66 52.2417 18.7367 47.475 18.4067Z" fill="white"/>
<path d="M29.8312 16.4783C28.7829 11.1596 24.1117 7.16666 18.5 7.16666C14.0446 7.16666 10.175 9.69499 8.24792 13.395C3.6075 13.8883 0 17.8196 0 22.5833C0 27.6862 4.14708 31.8333 9.25 31.8333H29.2917C33.5467 31.8333 37 28.38 37 24.125C37 20.055 33.8396 16.7558 29.8312 16.4783Z" fill="white" fill-opacity="0.49"/>
</svg>
